<svg width="26" height="26" viewBox="0 0 26 26" fill="none" xmlns="http://www.w3.org/2000/svg">
<path fill-rule="evenodd" clip-rule="evenodd" d="M9.37609 9.21125H14.0186V11.5238C14.6873 10.1938 16.4023 8.99875 18.9786 8.99875C23.9173 8.99875 25.0898 11.6463 25.0898 16.5038V25.5H20.0898V17.61C20.0898 14.8437 19.4211 13.2838 17.7186 13.2838C15.3573 13.2838 14.3761 14.965 14.3761 17.6088V25.5H9.37609V9.21125V9.21125ZM0.802344 25.2875H5.80234V8.99875H0.802344V25.2875V25.2875ZM6.51859 3.6875C6.51878 4.10659 6.43566 4.52154 6.27408 4.90823C6.11249 5.29492 5.87566 5.64564 5.57734 5.94C4.97284 6.54078 4.15461 6.87707 3.30234 6.875C2.45158 6.87443 1.63523 6.539 1.02984 5.94125C0.732608 5.64589 0.496576 5.29478 0.335273 4.90804C0.173971 4.5213 0.0905677 4.10653 0.0898438 3.6875C0.0898438 2.84125 0.427344 2.03125 1.03109 1.43375C1.63595 0.835198 2.45264 0.499626 3.30359 0.5C4.15609 0.5 4.97359 0.83625 5.57734 1.43375C6.17984 2.03125 6.51859 2.84125 6.51859 3.6875Z" fill="black"/>
</svg>
