<svg width="23" height="30" viewBox="0 0 23 30" fill="none" xmlns="http://www.w3.org/2000/svg">
<path d="M12.293 0.380859C6.28078 0.380859 0.339844 4.38867 0.339844 10.8752C0.339844 15.0002 2.66016 17.344 4.06641 17.344C4.64672 17.344 4.98047 15.7268 4.98047 15.2702C4.98047 14.7255 3.59203 13.5649 3.59203 11.2971C3.59203 6.58617 7.17797 3.24586 11.8186 3.24586C15.8086 3.24586 18.7617 5.51367 18.7617 9.67992C18.7617 12.7915 17.5139 18.6274 13.4705 18.6274C12.0117 18.6274 10.763 17.5727 10.763 16.0615C10.763 13.8462 12.3098 11.7021 12.3098 9.41648C12.3098 5.53805 6.80766 6.24117 6.80766 10.9287C6.80766 11.913 6.93047 13.0024 7.37016 13.8996C6.56109 17.3805 4.90922 22.5659 4.90922 26.1518C4.90922 27.259 5.06766 28.3493 5.17266 29.4565C5.37141 29.6796 5.27203 29.6562 5.57672 29.5446C8.52984 25.5012 8.42484 24.7109 9.76078 19.4196C10.4817 20.7912 12.3445 21.529 13.8211 21.529C20.0433 21.529 22.8389 15.4643 22.8389 9.99773C22.8389 4.17961 17.8111 0.382734 12.292 0.382734L12.293 0.380859Z" fill="black"/>
</svg>
