<svg width="30" height="24" viewBox="0 0 30 24" fill="none" xmlns="http://www.w3.org/2000/svg">
<path d="M29.1432 3.17147C28.0995 3.63397 26.9782 3.94647 25.7995 4.08772C27.0157 3.35996 27.9257 2.21455 28.3595 0.865218C27.2168 1.54396 25.9662 2.02171 24.662 2.27772C23.785 1.3413 22.6233 0.720626 21.3574 0.512061C20.0915 0.303496 18.7921 0.518708 17.661 1.12428C16.53 1.72986 15.6305 2.69192 15.1022 3.8611C14.5739 5.03028 14.4464 6.34116 14.7395 7.59022C12.4241 7.47396 10.159 6.87215 8.09127 5.82385C6.02352 4.77554 4.19929 3.30417 2.73699 1.50522C2.23699 2.36772 1.94949 3.36772 1.94949 4.43272C1.94893 5.39146 2.18503 6.33552 2.63684 7.18113C3.08865 8.02675 3.74219 8.74777 4.53949 9.28022C3.61484 9.2508 2.71058 9.00095 1.90199 8.55147V8.62647C1.9019 9.97114 2.36703 11.2744 3.21847 12.3152C4.06991 13.356 5.25521 14.0701 6.57324 14.3365C5.71547 14.5686 4.81616 14.6028 3.94324 14.4365C4.31511 15.5935 5.03949 16.6053 6.01495 17.3301C6.99042 18.055 8.16814 18.4567 9.38324 18.479C7.32053 20.0982 4.7731 20.9766 2.15074 20.9727C1.68622 20.9728 1.22209 20.9457 0.760742 20.8915C3.42259 22.6029 6.52117 23.5112 9.68574 23.5077C20.3982 23.5077 26.2545 14.6352 26.2545 6.94022C26.2545 6.69022 26.2482 6.43772 26.237 6.18772C27.3761 5.36394 28.3594 4.34384 29.1407 3.17522L29.1432 3.17147V3.17147Z" fill="black"/>
</svg>
