<svg width="27" height="20" viewBox="0 0 27 20" fill="none" xmlns="http://www.w3.org/2000/svg">
<path d="M26.7148 9.91797C26.7148 9.85352 26.7148 9.78027 26.7119 9.69531C26.709 9.45801 26.7031 9.19141 26.6973 8.90723C26.6738 8.08984 26.6328 7.27539 26.5684 6.50781C26.4805 5.45019 26.3516 4.56836 26.1758 3.90625C25.9903 3.21528 25.6267 2.5851 25.1213 2.0787C24.6159 1.5723 23.9865 1.20741 23.2959 1.02051C22.4668 0.797851 20.8437 0.660156 18.5586 0.575195C17.4717 0.53418 16.3086 0.507812 15.1455 0.493164C14.7383 0.487305 14.3604 0.484375 14.0205 0.481445H13.1592C12.8193 0.484375 12.4414 0.487305 12.0342 0.493164C10.8711 0.507812 9.70801 0.53418 8.62109 0.575195C6.33594 0.663086 4.70996 0.800781 3.88379 1.02051C3.19297 1.20695 2.56329 1.57169 2.05784 2.07816C1.5524 2.58463 1.18895 3.21505 1.00391 3.90625C0.825195 4.56836 0.699219 5.45019 0.611328 6.50781C0.546875 7.27539 0.505859 8.08984 0.482422 8.90723C0.473633 9.19141 0.470703 9.45801 0.467773 9.69531C0.467773 9.78027 0.464844 9.85352 0.464844 9.91797V10.082C0.464844 10.1465 0.464844 10.2197 0.467773 10.3047C0.470703 10.542 0.476562 10.8086 0.482422 11.0928C0.505859 11.9102 0.546875 12.7246 0.611328 13.4922C0.699219 14.5498 0.828125 15.4316 1.00391 16.0938C1.37891 17.4971 2.48047 18.6045 3.88379 18.9795C4.70996 19.2021 6.33594 19.3398 8.62109 19.4248C9.70801 19.4658 10.8711 19.4922 12.0342 19.5068C12.4414 19.5127 12.8193 19.5156 13.1592 19.5186H14.0205C14.3604 19.5156 14.7383 19.5127 15.1455 19.5068C16.3086 19.4922 17.4717 19.4658 18.5586 19.4248C20.8437 19.3369 22.4697 19.1992 23.2959 18.9795C24.6992 18.6045 25.8008 17.5 26.1758 16.0938C26.3545 15.4316 26.4805 14.5498 26.5684 13.4922C26.6328 12.7246 26.6738 11.9102 26.6973 11.0928C26.7061 10.8086 26.709 10.542 26.7119 10.3047C26.7119 10.2197 26.7148 10.1465 26.7148 10.082V9.91797V9.91797ZM24.6055 10.0703C24.6055 10.1318 24.6055 10.1992 24.6025 10.2783C24.5996 10.5068 24.5938 10.7588 24.5879 11.0313C24.5674 11.8105 24.5264 12.5898 24.4648 13.3135C24.3857 14.2568 24.2744 15.0303 24.1367 15.5488C23.9551 16.2256 23.4219 16.7617 22.748 16.9404C22.1328 17.1045 20.583 17.2363 18.4766 17.3154C17.4102 17.3564 16.2617 17.3828 15.1162 17.3975C14.7148 17.4033 14.3428 17.4062 14.0088 17.4062H13.1709L12.0635 17.3975C10.918 17.3828 9.77246 17.3564 8.70313 17.3154C6.59668 17.2334 5.04395 17.1045 4.43164 16.9404C3.75781 16.7588 3.22461 16.2256 3.04297 15.5488C2.90527 15.0303 2.79395 14.2568 2.71484 13.3135C2.65332 12.5898 2.61523 11.8105 2.5918 11.0313C2.58301 10.7588 2.58008 10.5039 2.57715 10.2783C2.57715 10.1992 2.57422 10.1289 2.57422 10.0703V9.92969C2.57422 9.86816 2.57422 9.80078 2.57715 9.72168C2.58008 9.49316 2.58594 9.24121 2.5918 8.96875C2.6123 8.18945 2.65332 7.41016 2.71484 6.68652C2.79395 5.74316 2.90527 4.96973 3.04297 4.45117C3.22461 3.77441 3.75781 3.23828 4.43164 3.05957C5.04687 2.89551 6.59668 2.76367 8.70313 2.68457C9.76953 2.64355 10.918 2.61719 12.0635 2.60254C12.4648 2.59668 12.8369 2.59375 13.1709 2.59375H14.0088L15.1162 2.60254C16.2617 2.61719 17.4072 2.64355 18.4766 2.68457C20.583 2.7666 22.1357 2.89551 22.748 3.05957C23.4219 3.24121 23.9551 3.77441 24.1367 4.45117C24.2744 4.96973 24.3857 5.74316 24.4648 6.68652C24.5264 7.41016 24.5645 8.18945 24.5879 8.96875C24.5967 9.24121 24.5996 9.49609 24.6025 9.72168C24.6025 9.80078 24.6055 9.87109 24.6055 9.92969V10.0703ZM10.9824 13.9258L17.7793 9.9707L10.9824 6.07422V13.9258Z" fill="black"/>
</svg>
